<svg width="252" height="251" viewBox="0 0 252 251" fill="none" xmlns="http://www.w3.org/2000/svg">
<g filter="url(#filter0_d_12729_262)">
<rect x="20.5" y="13" width="211" height="211" rx="105.5" fill="white"/>
<path fill-rule="evenodd" clip-rule="evenodd" d="M102.264 117.382C102.264 120.82 101.245 124.181 99.335 127.039C97.425 129.898 94.7103 132.126 91.5341 133.441C88.3579 134.757 84.863 135.101 81.4911 134.43C78.1193 133.76 75.0221 132.104 72.5911 129.673C70.1602 127.242 68.5047 124.145 67.834 120.773C67.1633 117.402 67.5075 113.907 68.8232 110.73C70.1388 107.554 72.3667 104.839 75.2252 102.929C78.0837 101.019 81.4444 100 84.8822 100C87.1649 100 89.4252 100.45 91.5341 101.323C93.643 102.197 95.5592 103.477 97.1733 105.091C98.7874 106.705 100.068 108.621 100.941 110.73C101.815 112.839 102.264 115.1 102.264 117.382ZM76.3751 119.436C76.7886 120.931 77.9099 121.679 79.739 121.679C80.916 121.679 81.8067 121.281 82.4112 120.486L84.8925 121.917C83.7152 123.619 81.9816 124.47 79.6916 124.47C77.7193 124.47 76.1368 123.874 74.9442 122.681C73.7988 121.462 73.1592 119.854 73.1548 118.182C73.1503 116.51 73.7814 114.899 74.9203 113.674C76.0971 112.474 77.608 111.874 79.453 111.874C80.2622 111.851 81.067 112.001 81.8138 112.313C82.5605 112.626 83.2319 113.094 83.7831 113.687C84.9214 114.898 85.5345 116.511 85.4889 118.172C85.4864 118.597 85.4464 119.02 85.3695 119.437L76.3751 119.436ZM76.3267 117.05H82.4112C82.2917 116.33 81.9038 115.682 81.3257 115.237C80.7821 114.841 80.125 114.632 79.4528 114.641C78.7168 114.612 77.993 114.835 77.4008 115.273C76.8439 115.72 76.4634 116.349 76.3267 117.05ZM90.7914 124.01C91.5636 124.323 92.3901 124.479 93.2231 124.47L93.2241 124.469C94.3391 124.482 95.4363 124.189 96.3971 123.623C97.3259 123.084 98.0923 122.305 98.6159 121.368L95.9439 119.841C95.71 120.329 95.331 120.734 94.8586 120.998C94.3527 121.282 93.7804 121.426 93.2005 121.416C92.7761 121.429 92.3535 121.354 91.9594 121.196C91.5653 121.038 91.2081 120.8 90.9102 120.497C90.3269 119.858 90.0036 119.025 90.0036 118.159C90.0036 117.294 90.3269 116.46 90.9102 115.821C91.2081 115.519 91.5653 115.281 91.9594 115.123C92.3536 114.965 92.7761 114.89 93.2005 114.903C93.7741 114.895 94.339 115.043 94.8345 115.332C95.3058 115.604 95.6842 116.011 95.9201 116.501L98.5672 114.951C98.0729 114.011 97.3194 113.233 96.3961 112.708C95.4329 112.149 94.3366 111.86 93.2231 111.873C92.3901 111.864 91.5636 112.02 90.7914 112.332C90.0192 112.645 89.3167 113.107 88.7244 113.693C88.1322 114.279 87.662 114.976 87.3411 115.745C87.0202 116.514 86.855 117.338 86.855 118.171C86.855 119.004 87.0202 119.829 87.3411 120.598C87.662 121.366 88.1322 122.064 88.7244 122.65C89.3167 123.235 90.0192 123.698 90.7914 124.01Z" fill="#F7CA11"/>
<path d="M110.204 122.645C109.321 123.52 108.199 124.115 106.978 124.353C105.758 124.592 104.494 124.464 103.347 123.986C102.199 123.507 101.218 122.7 100.529 121.665C99.8389 120.631 99.4708 119.415 99.4708 118.172C99.4708 116.928 99.8389 115.712 100.529 114.678C101.218 113.643 102.199 112.836 103.347 112.357C104.494 111.879 105.758 111.751 106.978 111.99C108.199 112.228 109.321 112.823 110.204 113.698C111.381 114.89 112.041 116.497 112.041 118.172C112.041 119.846 111.381 121.454 110.204 122.645ZM103.417 120.533C103.716 120.839 104.075 121.079 104.471 121.239C104.867 121.399 105.292 121.476 105.719 121.464C106.148 121.475 106.574 121.398 106.973 121.238C107.371 121.078 107.732 120.838 108.033 120.533C108.631 119.892 108.964 119.048 108.964 118.171C108.964 117.295 108.631 116.451 108.033 115.81C107.732 115.505 107.371 115.265 106.973 115.105C106.574 114.945 106.148 114.868 105.719 114.879C105.292 114.867 104.867 114.944 104.471 115.104C104.075 115.264 103.716 115.504 103.417 115.81C102.826 116.454 102.498 117.297 102.498 118.171C102.498 119.046 102.826 119.889 103.417 120.533Z" fill="#271C47"/>
<path d="M120.846 111.873C121.447 111.855 122.044 111.963 122.601 112.189C123.157 112.414 123.661 112.754 124.079 113.185C124.929 114.06 125.355 115.269 125.355 116.811V124.136H122.278V117.194C122.278 116.399 122.063 115.791 121.633 115.368C121.404 115.153 121.134 114.986 120.839 114.878C120.544 114.769 120.23 114.721 119.916 114.736C119.564 114.72 119.212 114.777 118.883 114.904C118.555 115.032 118.256 115.226 118.007 115.476C117.53 115.969 117.291 116.708 117.291 117.694V124.135H114.214V112.207H117.291V113.543C118.039 112.429 119.224 111.873 120.846 111.873" fill="#271C47"/>
<path d="M135.617 112.207H139.005L134.472 124.136H130.965L126.432 112.207H129.819L132.71 120.556L135.617 112.207Z" fill="#271C47"/>
<path d="M142.601 119.436C143.015 120.931 144.136 121.679 145.965 121.679C147.142 121.679 148.033 121.282 148.638 120.486L151.119 121.918C149.942 123.62 148.208 124.471 145.918 124.47C143.945 124.47 142.363 123.874 141.17 122.681C140.025 121.463 139.385 119.855 139.381 118.183C139.376 116.511 140.008 114.899 141.146 113.675C142.323 112.475 143.834 111.874 145.679 111.874C146.489 111.851 147.293 112.001 148.04 112.314C148.787 112.626 149.458 113.095 150.009 113.687C151.148 114.899 151.761 116.511 151.715 118.173C151.712 118.597 151.673 119.02 151.596 119.437L142.601 119.436ZM142.554 117.05H148.637C148.517 116.33 148.129 115.683 147.551 115.237C147.008 114.841 146.351 114.632 145.678 114.641C144.942 114.612 144.219 114.835 143.626 115.273C143.07 115.72 142.689 116.35 142.553 117.05" fill="#271C47"/>
<path d="M156.943 114.259C157.196 113.535 157.7 112.926 158.363 112.541C159.034 112.156 159.796 111.959 160.569 111.968V115.404C159.688 115.28 158.792 115.483 158.052 115.976C157.312 116.47 156.942 117.289 156.943 118.434V124.136H153.865V112.207H156.943V114.259Z" fill="#271C47"/>
<path d="M164.816 115.595C164.816 115.913 165.027 116.172 165.448 116.37C165.943 116.595 166.458 116.77 166.987 116.895C167.602 117.05 168.208 117.241 168.8 117.468C169.41 117.703 169.943 118.104 170.339 118.625C170.774 119.209 170.997 119.925 170.971 120.653C170.971 121.878 170.514 122.821 169.599 123.48C168.685 124.14 167.544 124.47 166.176 124.469C163.727 124.469 162.056 123.523 161.166 121.631L163.838 120.128C164.188 121.162 164.967 121.678 166.176 121.678C167.274 121.678 167.822 121.336 167.822 120.652C167.822 120.334 167.612 120.076 167.19 119.877C166.695 119.652 166.18 119.472 165.651 119.34C165.036 119.178 164.43 118.979 163.838 118.744C163.235 118.507 162.705 118.116 162.299 117.611C161.866 117.057 161.642 116.369 161.667 115.666C161.645 115.133 161.752 114.602 161.978 114.118C162.205 113.634 162.544 113.212 162.968 112.887C163.898 112.19 165.038 111.832 166.2 111.873C167.125 111.861 168.036 112.087 168.849 112.529C169.64 112.963 170.294 113.612 170.733 114.402L168.108 115.833C167.955 115.458 167.689 115.139 167.347 114.921C167.005 114.703 166.604 114.597 166.199 114.616C165.851 114.603 165.507 114.694 165.21 114.878C165.088 114.952 164.987 115.058 164.918 115.183C164.849 115.309 164.814 115.45 164.817 115.594" fill="#271C47"/>
<path d="M175.385 119.436C175.798 120.931 176.92 121.679 178.749 121.679C179.926 121.679 180.817 121.281 181.421 120.486L183.902 121.917C182.726 123.619 180.992 124.47 178.702 124.47C176.729 124.47 175.147 123.874 173.954 122.681C172.809 121.463 172.169 119.855 172.164 118.183C172.159 116.51 172.79 114.899 173.929 113.674C175.106 112.474 176.617 111.874 178.462 111.874C179.271 111.851 180.076 112.001 180.822 112.313C181.569 112.626 182.24 113.094 182.792 113.687C183.93 114.898 184.543 116.511 184.498 118.172C184.495 118.597 184.455 119.02 184.378 119.437L175.385 119.436ZM175.338 117.05H181.421C181.302 116.33 180.914 115.682 180.336 115.237C179.792 114.841 179.135 114.632 178.463 114.641C177.727 114.612 177.003 114.835 176.411 115.273C175.854 115.72 175.474 116.349 175.338 117.05Z" fill="#271C47"/>
<path d="M110.203 122.646C109.32 123.521 108.198 124.116 106.977 124.354C105.757 124.593 104.493 124.465 103.346 123.987C102.198 123.508 101.217 122.701 100.527 121.666C99.8378 120.632 99.4697 119.416 99.4697 118.172C99.4697 116.929 99.8378 115.713 100.527 114.679C101.217 113.644 102.198 112.837 103.346 112.358C104.493 111.88 105.757 111.752 106.977 111.991C108.198 112.229 109.32 112.824 110.203 113.699C111.38 114.891 112.04 116.498 112.04 118.172C112.04 119.847 111.38 121.454 110.203 122.646ZM103.416 120.534C103.715 120.839 104.073 121.08 104.47 121.24C104.866 121.4 105.291 121.476 105.718 121.464C106.147 121.476 106.573 121.399 106.971 121.239C107.369 121.079 107.731 120.839 108.032 120.534C108.63 119.893 108.963 119.049 108.963 118.172C108.963 117.296 108.63 116.452 108.032 115.81C107.731 115.506 107.369 115.266 106.971 115.106C106.573 114.946 106.147 114.869 105.718 114.88C105.291 114.868 104.866 114.945 104.47 115.105C104.073 115.265 103.715 115.505 103.416 115.81C102.825 116.455 102.497 117.298 102.497 118.172C102.497 119.047 102.825 119.889 103.416 120.534Z" fill="#271C47"/>
<path d="M120.845 111.873C121.446 111.855 122.043 111.963 122.6 112.189C123.156 112.414 123.66 112.754 124.078 113.185C124.928 114.06 125.354 115.269 125.354 116.812V124.136H122.277V117.194C122.277 116.399 122.062 115.791 121.632 115.368C121.403 115.153 121.133 114.986 120.838 114.878C120.543 114.769 120.229 114.721 119.915 114.736C119.563 114.72 119.211 114.777 118.882 114.904C118.554 115.032 118.255 115.226 118.006 115.476C117.529 115.969 117.29 116.708 117.29 117.694V124.135H114.213V112.207H117.29V113.543C118.038 112.429 119.223 111.873 120.845 111.873" fill="#271C47"/>
<path d="M135.616 112.207H139.004L134.471 124.136H130.964L126.43 112.207H129.818L132.709 120.555L135.616 112.207Z" fill="#271C47"/>
<path d="M142.6 119.436C143.014 120.931 144.135 121.679 145.964 121.679C147.141 121.679 148.032 121.282 148.637 120.486L151.118 121.918C149.941 123.62 148.207 124.471 145.917 124.47C143.944 124.47 142.362 123.874 141.169 122.681C140.024 121.463 139.384 119.855 139.38 118.183C139.375 116.511 140.007 114.899 141.145 113.675C142.322 112.475 143.833 111.874 145.678 111.874C146.488 111.851 147.292 112.001 148.039 112.314C148.786 112.626 149.457 113.095 150.008 113.687C151.147 114.899 151.76 116.511 151.714 118.173C151.711 118.597 151.672 119.02 151.595 119.437L142.6 119.436ZM142.553 117.05H148.636C148.516 116.33 148.128 115.683 147.55 115.237C147.007 114.841 146.35 114.632 145.677 114.641C144.941 114.612 144.218 114.835 143.625 115.273C143.069 115.72 142.688 116.35 142.552 117.05" fill="#271C47"/>
<path d="M156.943 114.259C157.196 113.535 157.7 112.926 158.363 112.541C159.034 112.156 159.796 111.959 160.569 111.968V115.404C159.688 115.28 158.792 115.483 158.052 115.976C157.312 116.47 156.942 117.289 156.943 118.434V124.136H153.865V112.207H156.943V114.259Z" fill="#271C47"/>
<path d="M164.815 115.595C164.815 115.914 165.026 116.172 165.447 116.371C165.942 116.595 166.457 116.771 166.986 116.895C167.601 117.05 168.206 117.241 168.799 117.468C169.409 117.703 169.942 118.104 170.337 118.625C170.773 119.21 170.996 119.925 170.97 120.654C170.97 121.879 170.513 122.821 169.598 123.481C168.684 124.141 167.543 124.47 166.175 124.47C163.725 124.47 162.055 123.524 161.165 121.631L163.837 120.128C164.187 121.162 164.966 121.679 166.175 121.679C167.273 121.679 167.821 121.337 167.821 120.653C167.821 120.335 167.611 120.076 167.189 119.878C166.694 119.653 166.178 119.473 165.65 119.341C165.035 119.178 164.429 118.979 163.837 118.745C163.234 118.507 162.704 118.116 162.298 117.611C161.864 117.058 161.641 116.369 161.666 115.667C161.644 115.133 161.751 114.602 161.977 114.118C162.204 113.635 162.543 113.213 162.966 112.887C163.897 112.191 165.037 111.833 166.199 111.873C167.123 111.862 168.035 112.088 168.847 112.529C169.639 112.964 170.292 113.613 170.732 114.402L168.107 115.833C167.954 115.458 167.688 115.14 167.346 114.922C167.004 114.704 166.603 114.597 166.198 114.616C165.85 114.603 165.505 114.694 165.209 114.878C165.087 114.953 164.986 115.058 164.917 115.184C164.848 115.309 164.813 115.451 164.816 115.594" fill="#271C47"/>
<path d="M175.384 119.436C175.798 120.931 176.919 121.678 178.748 121.679C179.925 121.679 180.816 121.281 181.42 120.485L183.901 121.917C182.725 123.619 180.991 124.47 178.701 124.47C176.728 124.47 175.146 123.873 173.953 122.68C172.808 121.462 172.168 119.854 172.163 118.182C172.158 116.51 172.789 114.899 173.928 113.674C175.105 112.474 176.616 111.874 178.461 111.874C179.27 111.851 180.075 112 180.821 112.313C181.568 112.626 182.239 113.094 182.791 113.687C183.929 114.898 184.542 116.51 184.497 118.172C184.494 118.596 184.454 119.019 184.377 119.436L175.384 119.436ZM175.337 117.05H181.42C181.301 116.33 180.913 115.682 180.335 115.236C179.791 114.841 179.134 114.632 178.462 114.64C177.726 114.611 177.002 114.834 176.41 115.272C175.853 115.719 175.473 116.349 175.337 117.05Z" fill="#271C47"/>
</g>
<defs>
<filter id="filter0_d_12729_262" x="0.5" y="0" width="251" height="251" filterUnits="userSpaceOnUse" color-interpolation-filters="sRGB">
<feFlood flood-opacity="0" result="BackgroundImageFix"/>
<feColorMatrix in="SourceAlpha" type="matrix" values="0 0 0 0 0 0 0 0 0 0 0 0 0 0 0 0 0 0 127 0" result="hardAlpha"/>
<feOffset dy="7"/>
<feGaussianBlur stdDeviation="10"/>
<feColorMatrix type="matrix" values="0 0 0 0 0 0 0 0 0 0 0 0 0 0 0 0 0 0 0.13 0"/>
<feBlend mode="normal" in2="BackgroundImageFix" result="effect1_dropShadow_12729_262"/>
<feBlend mode="normal" in="SourceGraphic" in2="effect1_dropShadow_12729_262" result="shape"/>
</filter>
</defs>
</svg>
